<svg xmlns="http://www.w3.org/2000/svg" viewBox="0 0 660.08 361.6"><defs><style>.cls-1{isolation:isolate;}.cls-2{fill:#345fa8;}.cls-3{fill:#d52129;}.cls-4{fill:#9f1c2e;}.cls-5{mix-blend-mode:multiply;}</style></defs><title>Asset 1</title><g class="cls-1"><g id="Layer_2" data-name="Layer 2"><g id="Layer_1-2" data-name="Layer 1"><rect class="cls-2" x="469.74" y="76.73" width="96.03" height="102.17" transform="translate(61.26 403.53) rotate(-45)"/><rect class="cls-3" x="474.08" y="216.88" width="96.03" height="102.18" transform="translate(-36.57 447.65) rotate(-45)"/><rect class="cls-4" x="541.99" y="148.98" width="96.03" height="102.18" transform="translate(31.34 475.8) rotate(-45)"/><path d="M2.66,239.36V206.31h8V232.4H23.48v7Z"/><path d="M34.86,219H29l3.36-12.65h6.77Z"/><path d="M70.15,239.36l-2.57-6.49H54.79l-2.42,6.49H43.69l13.86-33.05H65.3L79,239.36Zm-8.87-24.23-4.2,11.34h8.31Z"/><path d="M102.5,214.9a7.21,7.21,0,0,0-2.69-2.08,7.6,7.6,0,0,0-3.19-.77,9.94,9.94,0,0,0-1.62.14,4.25,4.25,0,0,0-1.47.54,3.54,3.54,0,0,0-1.09,1,2.72,2.72,0,0,0-.45,1.62,2.64,2.64,0,0,0,.35,1.4,3.24,3.24,0,0,0,1,1,9.69,9.69,0,0,0,1.61.77q.93.34,2.1.72c1.12.37,2.29.79,3.5,1.24a13.25,13.25,0,0,1,3.32,1.79,9.56,9.56,0,0,1,2.47,2.78,8,8,0,0,1,1,4.13,10.83,10.83,0,0,1-1,4.93,9.94,9.94,0,0,1-2.82,3.43,12.14,12.14,0,0,1-4.06,2,17,17,0,0,1-4.72.66A19.59,19.59,0,0,1,87.84,239a14.52,14.52,0,0,1-5.51-3.52l5.23-5.32a9.67,9.67,0,0,0,3.2,2.49,8.64,8.64,0,0,0,3.94,1,8.26,8.26,0,0,0,1.73-.19,4.42,4.42,0,0,0,1.47-.61,3,3,0,0,0,1-1.12,3.5,3.5,0,0,0,.38-1.68,2.69,2.69,0,0,0-.47-1.59,4.73,4.73,0,0,0-1.33-1.19,11.48,11.48,0,0,0-2.15-1c-.86-.29-1.83-.61-2.92-.95a29.31,29.31,0,0,1-3.1-1.22,10.37,10.37,0,0,1-2.71-1.79,8.34,8.34,0,0,1-1.91-2.66,9.09,9.09,0,0,1-.72-3.81,9.3,9.3,0,0,1,1.12-4.71A9.57,9.57,0,0,1,88,207.9a12.64,12.64,0,0,1,4.1-1.85,19.11,19.11,0,0,1,4.62-.58,17,17,0,0,1,5.72,1,14.54,14.54,0,0,1,5.11,3Z"/><path d="M133.35,214.9a7.26,7.26,0,0,0-2.68-2.08,7.68,7.68,0,0,0-3.2-.77,9.82,9.82,0,0,0-1.61.14,4.1,4.1,0,0,0-1.47.54,3.46,3.46,0,0,0-1.1,1,2.72,2.72,0,0,0-.44,1.62,2.55,2.55,0,0,0,.35,1.4,3.1,3.1,0,0,0,1,1,9.69,9.69,0,0,0,1.61.77q.94.34,2.1.72c1.12.37,2.29.79,3.5,1.24a13.25,13.25,0,0,1,3.32,1.79,9.56,9.56,0,0,1,2.47,2.78,7.94,7.94,0,0,1,1,4.13,10.83,10.83,0,0,1-1,4.93,9.94,9.94,0,0,1-2.82,3.43,12,12,0,0,1-4.06,2,17,17,0,0,1-4.72.66,19.59,19.59,0,0,1-6.86-1.24,14.59,14.59,0,0,1-5.51-3.52l5.23-5.32a9.78,9.78,0,0,0,3.2,2.49,8.67,8.67,0,0,0,3.94,1,8.26,8.26,0,0,0,1.73-.19,4.42,4.42,0,0,0,1.47-.61,3,3,0,0,0,1-1.12,3.5,3.5,0,0,0,.38-1.68,2.69,2.69,0,0,0-.47-1.59,4.6,4.6,0,0,0-1.33-1.19,11.48,11.48,0,0,0-2.15-1c-.85-.29-1.82-.61-2.91-.95a28.65,28.65,0,0,1-3.11-1.22,10.16,10.16,0,0,1-2.7-1.79,8.22,8.22,0,0,1-1.92-2.66,9.09,9.09,0,0,1-.72-3.81,9.3,9.3,0,0,1,1.12-4.71,9.77,9.77,0,0,1,2.94-3.22,12.6,12.6,0,0,1,4.11-1.85,19,19,0,0,1,4.62-.58,17.09,17.09,0,0,1,5.72,1,14.72,14.72,0,0,1,5.11,3Z"/><path d="M181.19,222.69a18.47,18.47,0,0,1-1.35,7.17,16.47,16.47,0,0,1-3.76,5.55,16.7,16.7,0,0,1-5.72,3.57,20,20,0,0,1-7.19,1.26A19.84,19.84,0,0,1,156,239a16.76,16.76,0,0,1-5.69-3.57,16.18,16.18,0,0,1-3.76-5.55,18.29,18.29,0,0,1-1.36-7.17,18.06,18.06,0,0,1,1.36-7.16,15.55,15.55,0,0,1,3.76-5.44,16.79,16.79,0,0,1,5.69-3.45,20.5,20.5,0,0,1,7.16-1.22,20.71,20.71,0,0,1,7.19,1.22,16.74,16.74,0,0,1,5.72,3.45,15.82,15.82,0,0,1,3.76,5.44A18.24,18.24,0,0,1,181.19,222.69Zm-8.54,0a11.23,11.23,0,0,0-.7-4,9.63,9.63,0,0,0-1.94-3.2,9,9,0,0,0-3-2.1,9.57,9.57,0,0,0-3.86-.77,9.2,9.2,0,0,0-6.81,2.87,9.16,9.16,0,0,0-1.94,3.2,12.44,12.44,0,0,0,0,8.14,9.74,9.74,0,0,0,1.93,3.25,8.91,8.91,0,0,0,3,2.12A9.38,9.38,0,0,0,170,230.07a9.64,9.64,0,0,0,2-3.25A11.7,11.7,0,0,0,172.65,222.69Z"/><path d="M213.4,238.77a17.71,17.71,0,0,1-7.42,1.47A19.41,19.41,0,0,1,198.9,239a16.65,16.65,0,0,1-5.62-3.57,16.41,16.41,0,0,1-3.73-5.53,19.29,19.29,0,0,1,0-14.28,16,16,0,0,1,3.8-5.49,17,17,0,0,1,5.7-3.47,20.33,20.33,0,0,1,13.93,0,13.27,13.27,0,0,1,5.49,3.62l-5.42,5.41a6.81,6.81,0,0,0-2.94-2.29,9.88,9.88,0,0,0-3.73-.74,9.57,9.57,0,0,0-3.86.77,9.18,9.18,0,0,0-3,2.12,9.81,9.81,0,0,0-2,3.2,11.42,11.42,0,0,0-.7,4,11.72,11.72,0,0,0,.7,4.1,9.59,9.59,0,0,0,1.94,3.2,8.67,8.67,0,0,0,3,2.08,9.46,9.46,0,0,0,3.79.75,8.82,8.82,0,0,0,4.15-.94,8.06,8.06,0,0,0,2.85-2.43l5.55,5.23A15.76,15.76,0,0,1,213.4,238.77Z"/><path d="M225.49,239.36V206.31h8v33.05Z"/><path d="M266,239.36l-2.57-6.49H250.64l-2.42,6.49h-8.68l13.86-33.05h7.75l13.72,33.05Zm-8.87-24.23-4.2,11.34h8.31Z"/><path d="M295,213.13v26.23h-8V213.13h-9.33v-6.82h26.65v6.82Z"/><path d="M311.28,239.36V206.31h8v33.05Z"/><path d="M363.83,222.69a18.47,18.47,0,0,1-1.35,7.17,16.33,16.33,0,0,1-3.76,5.55A16.7,16.7,0,0,1,353,239a20,20,0,0,1-7.19,1.26,19.84,19.84,0,0,1-7.16-1.26,16.76,16.76,0,0,1-5.69-3.57,16.18,16.18,0,0,1-3.76-5.55,18.29,18.29,0,0,1-1.36-7.17,18.06,18.06,0,0,1,1.36-7.16,15.55,15.55,0,0,1,3.76-5.44,16.79,16.79,0,0,1,5.69-3.45,20.5,20.5,0,0,1,7.16-1.22,20.71,20.71,0,0,1,7.19,1.22,16.74,16.74,0,0,1,5.72,3.45,15.68,15.68,0,0,1,3.76,5.44A18.24,18.24,0,0,1,363.83,222.69Zm-8.54,0a11.23,11.23,0,0,0-.7-4,9.63,9.63,0,0,0-1.94-3.2,9,9,0,0,0-3-2.1,9.57,9.57,0,0,0-3.86-.77,9.2,9.2,0,0,0-6.81,2.87,9.16,9.16,0,0,0-1.94,3.2,12.44,12.44,0,0,0,0,8.14,9.74,9.74,0,0,0,1.93,3.25,8.91,8.91,0,0,0,3,2.12,9.38,9.38,0,0,0,10.64-2.12,9.64,9.64,0,0,0,2-3.25A11.7,11.7,0,0,0,355.29,222.69Z"/><path d="M393.38,239.36l-13.3-21.61h-.14l.18,21.61h-7.75V206.31h9.11l13.25,21.57h.14l-.18-21.57h7.74v33.05Z"/><path d="M26.32,299.45a17.67,17.67,0,0,1-7.42,1.47,19.36,19.36,0,0,1-7.07-1.26,16.37,16.37,0,0,1-9.36-9.1,19.36,19.36,0,0,1,0-14.28,15.85,15.85,0,0,1,3.8-5.49A16.91,16.91,0,0,1,12,267.32a20.08,20.08,0,0,1,7-1.22,19.81,19.81,0,0,1,6.89,1.24A13.14,13.14,0,0,1,31.41,271L26,276.37a6.74,6.74,0,0,0-2.94-2.29,9.93,9.93,0,0,0-3.74-.74,9.36,9.36,0,0,0-3.85.77,9,9,0,0,0-3,2.12,9.71,9.71,0,0,0-2,3.2,11.19,11.19,0,0,0-.7,4,11.51,11.51,0,0,0,.7,4.11,9.53,9.53,0,0,0,1.94,3.2,8.67,8.67,0,0,0,3,2.08,9.37,9.37,0,0,0,3.78.74,8.86,8.86,0,0,0,4.16-.93,7.94,7.94,0,0,0,2.84-2.43l5.56,5.23A15.79,15.79,0,0,1,26.32,299.45Z"/><path d="M60.82,300l-2.57-6.49H45.46L43,300H34.35L48.21,267H56L69.69,300ZM52,275.81l-4.2,11.34h8.31Z"/><path d="M96.71,300l-13.3-21.62h-.14L83.45,300H75.71V267h9.1l13.25,21.56h.14L98,267h7.74V300Z"/><path d="M138.25,300l-2.57-6.49H122.89L120.47,300h-8.68L125.65,267h7.75L147.12,300Zm-8.87-24.23-4.2,11.34h8.31Z"/><path d="M184,283.42a16.2,16.2,0,0,1-1.61,7.49,15,15,0,0,1-4.25,5.18,17.55,17.55,0,0,1-5.95,3,24,24,0,0,1-6.72,1H153.14V267h12a29.34,29.34,0,0,1,6.91.82,17.19,17.19,0,0,1,6.06,2.7,13.8,13.8,0,0,1,4.3,5.07A17,17,0,0,1,184,283.42Zm-8.31,0a10.44,10.44,0,0,0-.91-4.65,7.89,7.89,0,0,0-2.42-2.94,9.81,9.81,0,0,0-3.46-1.56,17,17,0,0,0-4-.47h-4v19.33h3.79a17.56,17.56,0,0,0,4.13-.49,10,10,0,0,0,3.5-1.61,7.9,7.9,0,0,0,2.42-3A10.48,10.48,0,0,0,175.68,283.42Z"/><path d="M192.53,300V267h8V300Z"/><path d="M210.64,300V267h22.22v6.72H218.34V280h13.73v6.4H218.34v6.86H233.7V300Z"/><path d="M263.25,300l-13.31-21.62h-.14L250,300h-7.75V267h9.1l13.26,21.56h.14L264.55,267h7.75V300Z"/><path d="M303.39,300l-13.31-21.62H290l.18,21.62h-7.75V267h9.11l13.25,21.56h.14L304.7,267h7.74V300Z"/><path d="M322.53,300V267h22.21v6.72H330.23V280H344v6.4H330.23v6.86h15.35V300Z"/><path d="M33.51,344.1a16.32,16.32,0,0,1-1.61,7.49,15,15,0,0,1-4.25,5.18,17.83,17.83,0,0,1-5.95,3,24,24,0,0,1-6.72.95H2.66v-33h12a29.86,29.86,0,0,1,6.91.81,17.39,17.39,0,0,1,6.06,2.71,13.8,13.8,0,0,1,4.3,5.07A17,17,0,0,1,33.51,344.1Zm-8.31,0a10.44,10.44,0,0,0-.91-4.65,7.73,7.73,0,0,0-2.42-2.94A9.81,9.81,0,0,0,18.41,335a17,17,0,0,0-4-.47h-4v19.33h3.78a17.58,17.58,0,0,0,4.14-.49,10,10,0,0,0,3.5-1.61,8,8,0,0,0,2.42-3A10.48,10.48,0,0,0,25.2,344.1Z"/><path d="M42.05,360.71v-33H64.27v6.72H49.75v6.25H63.48V347H49.75v6.86H65.11v6.81Z"/><path d="M88.59,360.71v-33h8v26.09h12.79v6.95Z"/><path d="M120.79,340.32h-5.88l3.36-12.65H125Z"/><path d="M133.68,360.71v-33h8v33Z"/><path d="M181.75,360.71l.19-23.38h-.14l-8.59,23.38h-5.6l-8.36-23.38h-.14l.19,23.38h-7.51v-33h11.35l7.53,21.19h.18l7.2-21.19h11.54v33Z"/><path d="M229.59,360.71l.19-23.38h-.14l-8.59,23.38h-5.6l-8.35-23.38H207l.18,23.38h-7.51v-33H211l7.53,21.19h.19l7.19-21.19h11.55v33Z"/><path d="M247.47,360.71v-33h22.22v6.72H255.17v6.25h13.72V347H255.17v6.86h15.36v6.81Z"/><path d="M306.07,353.69a11.82,11.82,0,0,1-2.87,4.2,13.15,13.15,0,0,1-4.5,2.73,18.07,18.07,0,0,1-11.74,0,12.69,12.69,0,0,1-4.44-2.73,12,12,0,0,1-2.8-4.2,14.59,14.59,0,0,1-1-5.44V327.67h7.94V347.6a9,9,0,0,0,.35,2.57,6.67,6.67,0,0,0,1.07,2.17,5.06,5.06,0,0,0,1.91,1.51,7.66,7.66,0,0,0,5.75,0,5.21,5.21,0,0,0,1.93-1.51,6.14,6.14,0,0,0,1.08-2.17,10.22,10.22,0,0,0,.32-2.57V327.67h8v20.58A14.21,14.21,0,0,1,306.07,353.69Z"/><path d="M342.55,351.1a8.88,8.88,0,0,1-1.08,4.55,8.4,8.4,0,0,1-2.84,3,12.26,12.26,0,0,1-4,1.61,21.69,21.69,0,0,1-4.64.49H316.78v-33H330a20.58,20.58,0,0,1,3.92.39,11.77,11.77,0,0,1,3.64,1.36,7.29,7.29,0,0,1,3.69,6.74,6.84,6.84,0,0,1-1.5,4.55,8.21,8.21,0,0,1-3.92,2.59v.1a9,9,0,0,1,2.64.86,7.49,7.49,0,0,1,4.13,6.84Zm-9.06-13.86a2.63,2.63,0,0,0-1.28-2.45,7.45,7.45,0,0,0-3.8-.77h-3.93v6.81h4.3a5.78,5.78,0,0,0,3.48-.91A3.13,3.13,0,0,0,333.49,337.24Zm1.08,13.11A2.94,2.94,0,0,0,333,347.5a9.16,9.16,0,0,0-4.11-.79h-4.44v7.56H329a11.86,11.86,0,0,0,1.93-.16,6.07,6.07,0,0,0,1.82-.58,3.33,3.33,0,0,0,1.85-3.18Z"/><path d="M351.09,360.71v-33h8v26.09h12.79v6.95Z"/><path d="M378.91,360.71v-33h22.22v6.72H386.61v6.25h13.72V347H386.61v6.86H402v6.81Z"/><g class="cls-5"><path d="M71.76,4.14h20L161.46,167H135.7l-16.33-40.25H41.86L25.76,167H0Zm39.56,103.27L81,32.66H80.5L49.68,107.41Z"/><path d="M277.61,39.33c-9.2-12-24.38-18.63-39.33-18.63-36.57,0-60.72,29.21-60.72,66.24,0,34.27,22.77,63.48,60.72,63.48,18.63,0,32.89-8.28,42.55-21.85l18.63,14c-4.83,6.67-24.38,28.52-61.64,28.52-51.75,0-83.72-43.24-83.72-84.18C154.1,36.34,188.83,0,239,0c21.39,0,43.93,8.05,57,25.3Z"/><path d="M316.94,4.14H339V167H316.94Z"/></g></g></g></g></svg>