<?xml version="1.0" encoding="utf-8"?>
<!-- Generator: Adobe Illustrator 15.0.0, SVG Export Plug-In . SVG Version: 6.00 Build 0)  -->
<!DOCTYPE svg PUBLIC "-//W3C//DTD SVG 1.1//EN" "http://www.w3.org/Graphics/SVG/1.1/DTD/svg11.dtd">
<svg version="1.1" id="Layer_1" xmlns="http://www.w3.org/2000/svg" xmlns:xlink="http://www.w3.org/1999/xlink" x="0px" y="0px"
	 width="202px" height="69px" viewBox="0 0 202 69" enable-background="new 0 0 202 69" xml:space="preserve">
<g>
	
		<rect x="148.031" y="4.055" transform="matrix(0.7071 -0.7071 0.7071 0.7071 35.4882 116.9515)" fill="#3260AD" width="21.773" height="23.165"/>
	
		<rect x="148.32" y="36.528" transform="matrix(-0.7071 -0.7071 0.7071 -0.7071 239.4436 194.0089)" fill="#D72229" width="23.165" height="21.773"/>
	
		<rect x="163.714" y="21.133" transform="matrix(-0.7071 -0.7071 0.7071 -0.7071 276.6121 178.6112)" fill="#9F1D30" width="23.166" height="21.771"/>
	<polygon points="9.521,48.557 9.521,54.504 7.711,54.504 7.711,48.557 5.595,48.557 5.595,47.011 11.638,47.011 11.638,48.557 	"/>
	<polygon points="17.935,54.504 17.935,51.372 15.013,51.372 15.013,54.504 13.204,54.504 13.204,47.011 15.013,47.011 
		15.013,49.848 17.935,49.848 17.935,47.011 19.744,47.011 19.744,54.504 	"/>
	<polygon points="22.03,54.504 22.03,47.011 27.067,47.011 27.067,48.536 23.775,48.536 23.775,49.953 26.887,49.953 26.887,51.403 
		23.775,51.403 23.775,52.959 27.257,52.959 27.257,54.504 	"/>
	<path d="M37.946,54.371c-0.487,0.223-1.048,0.334-1.684,0.334c-0.578,0-1.112-0.096-1.603-0.286
		c-0.491-0.189-0.916-0.46-1.275-0.809c-0.36-0.35-0.642-0.768-0.847-1.254c-0.205-0.487-0.307-1.023-0.307-1.61
		c0-0.599,0.104-1.142,0.312-1.628s0.496-0.901,0.863-1.244c0.367-0.342,0.797-0.604,1.291-0.789
		c0.494-0.183,1.026-0.274,1.598-0.274c0.529,0,1.049,0.094,1.561,0.28c0.511,0.187,0.926,0.461,1.243,0.82l-1.228,1.227
		c-0.17-0.231-0.392-0.405-0.667-0.518c-0.274-0.112-0.557-0.17-0.846-0.17c-0.317,0-0.609,0.059-0.873,0.176
		c-0.265,0.116-0.492,0.275-0.682,0.48c-0.191,0.205-0.339,0.446-0.445,0.726c-0.105,0.278-0.159,0.584-0.159,0.914
		c0,0.34,0.053,0.649,0.159,0.933c0.106,0.282,0.252,0.523,0.439,0.725s0.411,0.358,0.672,0.472
		c0.261,0.112,0.547,0.168,0.857,0.168c0.36,0,0.674-0.069,0.942-0.211c0.267-0.142,0.482-0.324,0.645-0.551l1.259,1.186
		C38.841,53.848,38.432,54.15,37.946,54.371"/>
	<path d="M45.766,54.504l-0.582-1.471h-2.9l-0.55,1.471h-1.968l3.143-7.493h1.757l3.111,7.493H45.766z M43.755,49.011l-0.952,2.572
		h1.884L43.755,49.011z"/>
	<polygon points="53.904,54.504 50.888,49.604 50.856,49.604 50.898,54.504 49.141,54.504 49.141,47.011 51.205,47.011 54.211,51.9 
		54.242,51.9 54.201,47.011 55.957,47.011 55.957,54.504 	"/>
	<path d="M63.322,54.504l-0.582-1.471h-2.9l-0.55,1.471h-1.968l3.144-7.493h1.756l3.112,7.493H63.322z M61.311,49.011l-0.952,2.572
		h1.884L61.311,49.011z"/>
	<path d="M73.693,50.736c0,0.656-0.123,1.223-0.366,1.699c-0.244,0.476-0.564,0.867-0.963,1.175
		c-0.398,0.306-0.848,0.532-1.349,0.677c-0.5,0.145-1.009,0.217-1.524,0.217h-2.793v-7.493h2.708c0.529,0,1.052,0.062,1.566,0.187
		c0.515,0.123,0.974,0.328,1.376,0.614c0.401,0.285,0.726,0.667,0.974,1.147C73.57,49.438,73.693,50.032,73.693,50.736
		 M71.81,50.736c0-0.423-0.07-0.774-0.207-1.053s-0.321-0.501-0.55-0.667c-0.229-0.165-0.49-0.284-0.782-0.354
		c-0.293-0.071-0.595-0.106-0.905-0.106h-0.9v4.382h0.857c0.325,0,0.637-0.037,0.937-0.111s0.564-0.196,0.793-0.366
		c0.229-0.169,0.413-0.395,0.55-0.677S71.81,51.153,71.81,50.736"/>
	<rect x="75.629" y="47.011" width="1.821" height="7.493"/>
	<path d="M84.815,54.504l-0.583-1.471h-2.899l-0.55,1.471h-1.968l3.142-7.493h1.757l3.111,7.493H84.815z M82.804,49.011
		l-0.953,2.572h1.884L82.804,49.011z"/>
	<polygon points="92.953,54.504 89.937,49.604 89.905,49.604 89.947,54.504 88.19,54.504 88.19,47.011 90.254,47.011 93.259,51.9 
		93.292,51.9 93.249,47.011 95.007,47.011 95.007,54.504 	"/>
	<path d="M104.689,54.504l-1.627-2.974h-0.617v2.974h-1.768v-7.493h2.857c0.36,0,0.711,0.037,1.053,0.111
		c0.343,0.075,0.649,0.2,0.921,0.376c0.271,0.177,0.488,0.409,0.651,0.699c0.162,0.288,0.242,0.648,0.242,1.078
		c0,0.509-0.137,0.937-0.411,1.281c-0.276,0.346-0.657,0.594-1.144,0.741l1.958,3.206H104.689z M104.615,49.307
		c0-0.175-0.038-0.318-0.112-0.428c-0.074-0.108-0.17-0.192-0.287-0.253c-0.116-0.061-0.248-0.102-0.394-0.122
		c-0.146-0.021-0.285-0.032-0.42-0.032h-0.967v1.746h0.86c0.149,0,0.302-0.012,0.457-0.036c0.157-0.024,0.298-0.069,0.426-0.133
		s0.232-0.155,0.314-0.275C104.574,49.653,104.615,49.498,104.615,49.307"/>
	<polygon points="108.435,54.504 108.435,47.011 113.472,47.011 113.472,48.536 110.182,48.536 110.182,49.953 113.293,49.953 
		113.293,51.403 110.182,51.403 110.182,52.959 113.662,52.959 113.662,54.504 	"/>
	<path d="M120.679,54.504l-0.582-1.471h-2.899l-0.551,1.471h-1.968l3.143-7.493h1.757l3.11,7.493H120.679z M118.668,49.011
		l-0.952,2.572h1.884L118.668,49.011z"/>
	<polygon points="124.055,54.504 124.055,47.011 125.876,47.011 125.876,52.927 128.773,52.927 128.773,54.504 	"/>
	<polygon points="6.314,68.262 6.314,60.769 11.352,60.769 11.352,62.294 8.061,62.294 8.061,63.711 11.172,63.711 11.172,65.161 
		8.061,65.161 8.061,66.717 11.542,66.717 11.542,68.262 	"/>
	<path d="M17.437,62.716c-0.155-0.197-0.358-0.354-0.609-0.471s-0.492-0.175-0.725-0.175c-0.12,0-0.242,0.011-0.365,0.032
		c-0.124,0.021-0.235,0.062-0.333,0.121c-0.1,0.061-0.183,0.139-0.249,0.234c-0.067,0.095-0.101,0.215-0.101,0.364
		c0,0.127,0.026,0.232,0.08,0.317c0.053,0.085,0.13,0.158,0.233,0.222c0.102,0.063,0.224,0.122,0.365,0.175
		c0.141,0.054,0.3,0.107,0.476,0.164c0.254,0.085,0.519,0.179,0.793,0.28c0.276,0.104,0.525,0.238,0.752,0.408
		c0.226,0.169,0.413,0.379,0.561,0.63c0.148,0.25,0.223,0.562,0.223,0.936c0,0.431-0.08,0.803-0.239,1.117
		c-0.158,0.314-0.372,0.573-0.64,0.777c-0.268,0.205-0.575,0.356-0.92,0.455s-0.702,0.148-1.069,0.148
		c-0.536,0-1.055-0.094-1.556-0.281c-0.501-0.186-0.917-0.452-1.249-0.799l1.185-1.206c0.183,0.227,0.425,0.415,0.725,0.566
		c0.3,0.152,0.598,0.228,0.894,0.228c0.134,0,0.265-0.015,0.392-0.042c0.127-0.029,0.238-0.074,0.333-0.138
		c0.095-0.063,0.171-0.148,0.228-0.254c0.056-0.106,0.084-0.233,0.084-0.382c0-0.141-0.035-0.261-0.106-0.36
		c-0.07-0.098-0.17-0.188-0.301-0.27c-0.131-0.081-0.293-0.155-0.487-0.222c-0.193-0.067-0.415-0.14-0.661-0.218
		c-0.24-0.076-0.474-0.168-0.704-0.274c-0.229-0.105-0.434-0.242-0.613-0.407c-0.18-0.166-0.325-0.366-0.434-0.604
		c-0.11-0.236-0.164-0.523-0.164-0.862c0-0.416,0.084-0.773,0.253-1.069c0.17-0.296,0.392-0.539,0.667-0.729
		c0.275-0.191,0.585-0.329,0.932-0.419c0.345-0.087,0.694-0.132,1.047-0.132c0.423,0,0.856,0.077,1.296,0.232
		c0.441,0.156,0.827,0.386,1.159,0.688L17.437,62.716z"/>
	<polygon points="23.681,62.313 23.681,68.262 21.87,68.262 21.87,62.313 19.754,62.313 19.754,60.769 25.796,60.769 25.796,62.313 
			"/>
	<path d="M32.442,68.262l-0.582-1.471h-2.899l-0.55,1.471h-1.968l3.143-7.493h1.757l3.11,7.493H32.442z M30.432,62.769l-0.952,2.572
		h1.883L30.432,62.769z"/>
	<polygon points="39.025,62.313 39.025,68.262 37.214,68.262 37.214,62.313 35.099,62.313 35.099,60.769 41.141,60.769 
		41.141,62.313 	"/>
	<polygon points="42.708,68.262 42.708,60.769 47.745,60.769 47.745,62.294 44.453,62.294 44.453,63.711 47.564,63.711 
		47.564,65.161 44.453,65.161 44.453,66.717 47.935,66.717 47.935,68.262 	"/>
	<path d="M58.338,68.262l-0.583-1.471h-2.899l-0.55,1.471h-1.968l3.143-7.493h1.756l3.112,7.493H58.338z M56.327,62.769
		l-0.952,2.572h1.883L56.327,62.769z"/>
	<path d="M65.672,62.716c-0.156-0.197-0.358-0.354-0.609-0.471s-0.493-0.175-0.725-0.175c-0.121,0-0.242,0.011-0.365,0.032
		c-0.124,0.021-0.235,0.062-0.333,0.121c-0.099,0.061-0.182,0.139-0.249,0.234c-0.067,0.095-0.1,0.215-0.1,0.364
		c0,0.127,0.026,0.232,0.079,0.317c0.053,0.085,0.131,0.158,0.233,0.222s0.224,0.122,0.365,0.175
		c0.141,0.054,0.301,0.107,0.477,0.164c0.253,0.085,0.518,0.179,0.793,0.28c0.275,0.104,0.525,0.238,0.752,0.408
		c0.225,0.169,0.413,0.379,0.56,0.63c0.148,0.25,0.222,0.562,0.222,0.936c0,0.431-0.079,0.803-0.238,1.117
		c-0.16,0.314-0.372,0.573-0.64,0.777c-0.269,0.205-0.576,0.356-0.921,0.455c-0.346,0.099-0.702,0.148-1.069,0.148
		c-0.537,0-1.055-0.094-1.555-0.281c-0.501-0.186-0.918-0.452-1.249-0.799l1.185-1.206c0.184,0.227,0.425,0.415,0.726,0.566
		c0.299,0.152,0.598,0.228,0.894,0.228c0.134,0,0.265-0.015,0.392-0.042c0.127-0.029,0.238-0.074,0.333-0.138
		c0.096-0.063,0.171-0.148,0.228-0.254c0.057-0.106,0.085-0.233,0.085-0.382c0-0.141-0.036-0.261-0.107-0.36
		c-0.07-0.098-0.17-0.188-0.301-0.27c-0.13-0.081-0.292-0.155-0.486-0.222c-0.194-0.067-0.415-0.14-0.662-0.218
		c-0.24-0.076-0.475-0.168-0.704-0.274c-0.229-0.105-0.435-0.242-0.614-0.407c-0.179-0.166-0.324-0.366-0.434-0.604
		c-0.109-0.236-0.164-0.523-0.164-0.862c0-0.416,0.084-0.773,0.254-1.069c0.169-0.296,0.392-0.539,0.666-0.729
		c0.276-0.191,0.585-0.329,0.932-0.419c0.345-0.087,0.694-0.132,1.048-0.132c0.423,0,0.855,0.077,1.296,0.232
		c0.441,0.156,0.827,0.386,1.159,0.688L65.672,62.716z"/>
	<path d="M72.666,62.716c-0.155-0.197-0.358-0.354-0.608-0.471c-0.25-0.117-0.492-0.175-0.725-0.175
		c-0.121,0-0.242,0.011-0.366,0.032s-0.235,0.062-0.333,0.121c-0.1,0.061-0.182,0.139-0.249,0.234
		c-0.067,0.095-0.101,0.215-0.101,0.364c0,0.127,0.027,0.232,0.08,0.317c0.053,0.085,0.13,0.158,0.233,0.222
		c0.102,0.063,0.224,0.122,0.365,0.175c0.141,0.054,0.3,0.107,0.477,0.164c0.254,0.085,0.519,0.179,0.793,0.28
		c0.275,0.104,0.524,0.238,0.751,0.408c0.227,0.169,0.413,0.379,0.561,0.63c0.149,0.25,0.223,0.562,0.223,0.936
		c0,0.431-0.08,0.803-0.238,1.117c-0.159,0.314-0.372,0.573-0.641,0.777c-0.268,0.205-0.574,0.356-0.919,0.455
		c-0.346,0.099-0.703,0.148-1.069,0.148c-0.536,0-1.055-0.094-1.555-0.281c-0.501-0.186-0.918-0.452-1.249-0.799l1.185-1.206
		c0.184,0.227,0.425,0.415,0.725,0.566c0.3,0.152,0.598,0.228,0.895,0.228c0.134,0,0.265-0.015,0.392-0.042
		c0.126-0.029,0.238-0.074,0.333-0.138c0.094-0.063,0.17-0.148,0.227-0.254c0.057-0.106,0.084-0.233,0.084-0.382
		c0-0.141-0.035-0.261-0.105-0.36c-0.071-0.098-0.171-0.188-0.302-0.27c-0.13-0.081-0.293-0.155-0.486-0.222
		c-0.194-0.067-0.415-0.14-0.662-0.218c-0.24-0.076-0.474-0.168-0.705-0.274c-0.228-0.105-0.433-0.242-0.613-0.407
		c-0.18-0.166-0.325-0.366-0.433-0.604c-0.11-0.236-0.165-0.523-0.165-0.862c0-0.416,0.084-0.773,0.254-1.069
		c0.169-0.296,0.391-0.539,0.667-0.729c0.275-0.191,0.585-0.329,0.932-0.419c0.345-0.087,0.694-0.132,1.046-0.132
		c0.424,0,0.856,0.077,1.297,0.232c0.441,0.156,0.828,0.386,1.16,0.688L72.666,62.716z"/>
	<path d="M83.513,64.483c0,0.592-0.103,1.134-0.307,1.624c-0.205,0.491-0.489,0.91-0.852,1.261
		c-0.363,0.349-0.795,0.618-1.296,0.809c-0.501,0.19-1.044,0.285-1.63,0.285c-0.586,0-1.127-0.095-1.625-0.285
		c-0.497-0.19-0.928-0.46-1.291-0.809c-0.363-0.351-0.648-0.77-0.852-1.261c-0.204-0.49-0.306-1.032-0.306-1.624
		c0-0.6,0.102-1.142,0.306-1.625c0.204-0.482,0.489-0.894,0.852-1.232s0.793-0.6,1.291-0.783c0.498-0.184,1.039-0.274,1.625-0.274
		c0.585,0,1.128,0.091,1.63,0.274c0.501,0.184,0.933,0.444,1.296,0.783c0.363,0.339,0.646,0.75,0.852,1.232
		C83.41,63.342,83.513,63.884,83.513,64.483 M81.577,64.483c0-0.324-0.053-0.627-0.159-0.91c-0.107-0.282-0.253-0.523-0.44-0.725
		c-0.188-0.201-0.412-0.36-0.676-0.477c-0.266-0.116-0.556-0.175-0.874-0.175c-0.318,0-0.607,0.059-0.869,0.175
		c-0.261,0.116-0.486,0.275-0.676,0.477c-0.19,0.201-0.337,0.442-0.44,0.725c-0.102,0.283-0.152,0.586-0.152,0.91
		c0,0.339,0.052,0.65,0.158,0.937c0.107,0.286,0.252,0.531,0.44,0.736c0.187,0.204,0.41,0.364,0.671,0.48
		c0.262,0.117,0.55,0.175,0.869,0.175c0.317,0,0.606-0.058,0.868-0.175c0.261-0.116,0.486-0.276,0.677-0.48
		c0.191-0.205,0.338-0.45,0.445-0.736C81.524,65.134,81.577,64.822,81.577,64.483"/>
	<path d="M90.815,68.129c-0.487,0.223-1.048,0.333-1.683,0.333c-0.579,0-1.113-0.095-1.603-0.285
		c-0.491-0.19-0.916-0.46-1.276-0.809c-0.359-0.351-0.642-0.768-0.847-1.255S85.1,65.091,85.1,64.504
		c0-0.599,0.104-1.143,0.313-1.63c0.208-0.486,0.495-0.9,0.861-1.242c0.367-0.343,0.797-0.605,1.292-0.789
		c0.494-0.184,1.026-0.274,1.598-0.274c0.529,0,1.049,0.093,1.561,0.279c0.511,0.188,0.926,0.461,1.243,0.82l-1.228,1.228
		c-0.17-0.231-0.392-0.405-0.667-0.519c-0.275-0.112-0.558-0.169-0.847-0.169c-0.317,0-0.608,0.058-0.872,0.175
		c-0.265,0.117-0.492,0.276-0.683,0.481c-0.19,0.205-0.338,0.446-0.445,0.726c-0.105,0.278-0.158,0.583-0.158,0.914
		c0,0.339,0.052,0.649,0.158,0.933c0.107,0.281,0.252,0.523,0.44,0.724c0.187,0.202,0.41,0.359,0.671,0.472
		c0.262,0.112,0.547,0.169,0.857,0.169c0.36,0,0.674-0.07,0.942-0.212c0.269-0.141,0.484-0.323,0.645-0.55l1.26,1.185
		C91.711,67.605,91.301,67.907,90.815,68.129"/>
	<rect x="93.555" y="60.769" width="1.821" height="7.493"/>
	<path d="M102.741,68.262l-0.582-1.471H99.26l-0.549,1.471h-1.969l3.143-7.493h1.756l3.113,7.493H102.741z M100.73,62.769
		l-0.953,2.572h1.885L100.73,62.769z"/>
	<polygon points="109.323,62.313 109.323,68.262 107.515,68.262 107.515,62.313 105.397,62.313 105.397,60.769 111.439,60.769 
		111.439,62.313 	"/>
	<rect x="113.006" y="60.769" width="1.82" height="7.493"/>
	<path d="M124.922,64.483c0,0.592-0.103,1.134-0.308,1.624c-0.204,0.491-0.488,0.91-0.851,1.261
		c-0.364,0.349-0.796,0.618-1.297,0.809s-1.044,0.285-1.63,0.285s-1.127-0.095-1.624-0.285c-0.498-0.19-0.928-0.46-1.291-0.809
		c-0.364-0.351-0.646-0.77-0.852-1.261c-0.205-0.49-0.308-1.032-0.308-1.624c0-0.6,0.103-1.142,0.308-1.625
		c0.205-0.482,0.487-0.894,0.852-1.232c0.363-0.339,0.793-0.6,1.291-0.783c0.497-0.184,1.038-0.274,1.624-0.274
		s1.129,0.091,1.63,0.274s0.933,0.444,1.297,0.783c0.362,0.339,0.646,0.75,0.851,1.232
		C124.819,63.342,124.922,63.884,124.922,64.483 M122.986,64.483c0-0.324-0.055-0.627-0.16-0.91
		c-0.104-0.282-0.252-0.523-0.438-0.725c-0.188-0.201-0.414-0.36-0.678-0.477c-0.265-0.116-0.556-0.175-0.874-0.175
		c-0.317,0-0.606,0.059-0.868,0.175c-0.261,0.116-0.486,0.275-0.677,0.477s-0.336,0.442-0.439,0.725
		c-0.103,0.283-0.153,0.586-0.153,0.91c0,0.339,0.053,0.65,0.159,0.937c0.105,0.286,0.252,0.531,0.438,0.736
		c0.188,0.204,0.411,0.364,0.672,0.48c0.262,0.117,0.551,0.175,0.868,0.175c0.318,0,0.606-0.058,0.867-0.175
		c0.262-0.116,0.487-0.276,0.679-0.48c0.189-0.205,0.339-0.45,0.443-0.736C122.932,65.134,122.986,64.822,122.986,64.483"/>
	<polygon points="131.621,68.262 128.604,63.361 128.573,63.361 128.615,68.262 126.858,68.262 126.858,60.769 128.921,60.769 
		131.927,65.658 131.959,65.658 131.917,60.769 133.674,60.769 133.674,68.262 	"/>
	<g>
		<g>
			<defs>
				<rect id="SVGID_1_" x="0.855" y="0.236" width="130.156" height="38.796"/>
			</defs>
			<clipPath id="SVGID_2_">
				<use xlink:href="#SVGID_1_"  overflow="visible"/>
			</clipPath>
			<path clip-path="url(#SVGID_2_)" d="M28.857,9.153C26.771,6.442,23.329,4.93,19.94,4.93c-8.291,0-13.766,6.622-13.766,15.018
				c0,7.77,5.162,14.392,13.766,14.392c4.224,0,7.457-1.877,9.647-4.954l4.223,3.181c-1.095,1.512-5.527,6.466-13.975,6.466
				c-11.733,0-18.981-9.803-18.981-19.085c0-11.472,7.874-19.711,19.242-19.711c4.849,0,9.959,1.825,12.932,5.736L28.857,9.153z"/>
			<path clip-path="url(#SVGID_2_)" d="M37.774,1.175h12.985c9.438,0,11.836,5.684,11.836,10.325c0,4.693-3.494,9.125-9.073,9.751
				l10.48,16.843h-6.257l-9.386-16.27h-5.58v16.27h-5.006V1.175z M42.78,17.445h6.57c3.963,0,7.927-0.939,7.927-5.945
				c0-5.006-3.963-5.945-7.927-5.945h-6.57V17.445z"/>
			<polygon clip-path="url(#SVGID_2_)" points="67.027,1.175 90.857,1.175 90.857,5.868 72.034,5.868 72.034,16.871 89.555,16.871 
				89.555,21.563 72.034,21.563 72.034,33.401 91.797,33.401 91.797,38.094 67.027,38.094 			"/>
			<path clip-path="url(#SVGID_2_)" d="M110.673,1.175h4.537l15.801,36.919h-5.841l-3.702-9.125h-17.573l-3.65,9.125h-5.84
				L110.673,1.175z M119.643,24.588L112.76,7.641h-0.104l-6.987,16.947H119.643z"/>
		</g>
	</g>
</g>
</svg>
